<?xml version="1.0" encoding="UTF-8" standalone="no"?>
<svg width="153px" height="58px" viewBox="0 0 153 58" version="1.1" xmlns="http://www.w3.org/2000/svg" xmlns:xlink="http://www.w3.org/1999/xlink">
    <!-- Generator: Sketch 3.6.1 (26313) - http://www.bohemiancoding.com/sketch -->
    <title>BH16_logo_orange_blue_linear</title>
    <desc>Created with Sketch.</desc>
    <defs></defs>
    <g id="Page-1" stroke="none" stroke-width="1" fill="none" fill-rule="evenodd">
        <g id="BH16_logo_orange_blue_linear">
            <g id="Layer_1">
                <g id="Group">
                    <path d="M0.0941538462,34.6113821 C0.0941538462,34.3441734 0.313846154,34.1084011 0.596307692,34.1084011 L9.44676923,34.1084011 C11.8476923,34.1084011 13.668,34.7214092 14.892,35.9631436 C15.8178462,36.8905149 16.2886154,38.0536585 16.2886154,39.4211382 L16.2886154,39.4840108 C16.2886154,40.097019 16.2101538,40.6628726 16.0375385,41.1501355 C15.8649231,41.6531165 15.6452308,42.0775068 15.3784615,42.4390244 C15.1116923,42.800542 14.7978462,43.1306233 14.4369231,43.4135501 C14.3427692,43.4921409 14.2486154,43.5550136 14.1544615,43.6336043 C13.8406154,43.8536585 13.872,44.3252033 14.2172308,44.498103 C15.0332308,44.8753388 15.7393846,45.3468835 16.3043077,45.9284553 C17.0732308,46.698645 17.4498462,47.798916 17.4498462,49.2135501 L17.4498462,49.2764228 C17.4498462,50.203794 17.2615385,51.0368564 16.9006154,51.7441734 C16.5396923,52.4672087 16.0061538,53.0487805 15.3313846,53.5360434 C14.6566154,54.0075881 13.8406154,54.3691057 12.8990769,54.6205962 C11.9575385,54.8720867 10.9061538,54.997832 9.72923077,54.997832 L0.596307692,54.997832 C0.329538462,54.997832 0.0941538462,54.7777778 0.0941538462,54.4948509 L0.0941538462,34.6113821 L0.0941538462,34.6113821 Z M8.69353846,42.8948509 C9.88615385,42.8948509 10.8433846,42.6590786 11.5495385,42.203252 C12.2713846,41.7317073 12.6166154,41.0401084 12.6166154,40.0813008 L12.6166154,40.0184282 C12.6166154,39.1853659 12.3027692,38.5409214 11.6750769,38.0693767 C11.0473846,37.597832 10.1372308,37.3777778 8.94461538,37.3777778 L4.18984615,37.3777778 C3.92307692,37.3777778 3.68769231,37.597832 3.68769231,37.8807588 L3.68769231,42.4075881 C3.68769231,42.6747967 3.90738462,42.9105691 4.18984615,42.9105691 L8.69353846,42.9105691 L8.69353846,42.8948509 Z M9.77630769,51.697019 C11.0316923,51.697019 12.0046154,51.4612466 12.7264615,50.9897019 C13.4326154,50.5181572 13.7935385,49.8108401 13.7935385,48.8520325 L13.7935385,48.7891599 C13.7935385,47.8932249 13.4483077,47.2173442 12.7421538,46.7300813 C12.036,46.2428184 10.9689231,46.0070461 9.50953846,46.0070461 L4.18984615,46.0070461 C3.92307692,46.0070461 3.68769231,46.2271003 3.68769231,46.5100271 L3.68769231,51.2097561 C3.68769231,51.4769648 3.90738462,51.7127371 4.18984615,51.7127371 L9.77630769,51.7127371 L9.77630769,51.697019 Z" id="Shape" fill="#202945"></path>
                    <path d="M36.108,33.9197832 L38.7129231,33.9197832 C39.0110769,33.9197832 39.2621538,34.1712737 39.2621538,34.4699187 L39.2621538,54.4162602 C39.2621538,54.7149051 39.0110769,54.9663957 38.7129231,54.9663957 L36.108,54.9663957 C35.8098462,54.9663957 35.5587692,54.7149051 35.5587692,54.4162602 L35.5587692,34.4856369 C35.5430769,34.1712737 35.7941538,33.9197832 36.108,33.9197832" id="Shape" fill="#202945"></path>
                    <path d="M42.6046154,33.9197832 L45.2095385,33.9197832 C45.5076923,33.9197832 45.7587692,34.1712737 45.7587692,34.4699187 L45.7587692,54.4162602 C45.7587692,54.7149051 45.5076923,54.9663957 45.2095385,54.9663957 L42.6046154,54.9663957 C42.3064615,54.9663957 42.0553846,54.7149051 42.0553846,54.4162602 L42.0553846,34.4856369 C42.0553846,34.1712737 42.3064615,33.9197832 42.6046154,33.9197832" id="Shape" fill="#202945"></path>
                    <path d="M48.552,33.9197832 L50.3409231,33.9197832 C51.3766154,33.9197832 52.2083077,34.7528455 52.2083077,35.7902439 L52.2083077,41.6845528 C52.5849231,41.2601626 53.1341538,40.8514905 53.856,40.4585366 C54.5778462,40.0655827 55.5036923,39.8612466 56.6492308,39.8612466 C57.5593846,39.8612466 58.3596923,40.00271 59.0815385,40.301355 C59.7876923,40.6 60.384,41.0086721 60.8547692,41.5430894 C61.3255385,42.0775068 61.6864615,42.7219512 61.9375385,43.4764228 C62.1886154,44.2308943 62.3141538,45.0639566 62.3141538,45.9756098 L62.3141538,54.4634146 C62.3141538,54.7463415 62.0787692,54.9821138 61.7963077,54.9821138 L59.0972308,54.9821138 C58.8147692,54.9821138 58.5793846,54.7463415 58.5793846,54.4634146 L58.5793846,46.0070461 C58.5793846,45.0639566 58.3283077,44.3252033 57.8104615,43.8065041 C57.2926154,43.2878049 56.6335385,43.0363144 55.8175385,43.0363144 C55.3153846,43.0363144 54.8446154,43.1306233 54.4052308,43.3349593 C53.9658462,43.5392954 53.5892308,43.8065041 53.2753846,44.1680217 C52.9615385,44.5295393 52.7104615,44.9382114 52.5378462,45.4097561 C52.3652308,45.8813008 52.2710769,46.4 52.2710769,46.9344173 L52.2710769,54.4319783 C52.2710769,54.7149051 52.0356923,54.9506775 51.7532308,54.9506775 L49.0541538,54.9506775 C48.7716923,54.9506775 48.5363077,54.7149051 48.5363077,54.4319783 L48.5363077,36.497561 L48.5363077,33.9197832 L48.552,33.9197832 Z" id="Shape" fill="#202945"></path>
                    <path d="M93.2593846,40.1756098 L95.5975385,40.1756098 C95.9270769,40.1756098 96.2095385,40.4271003 96.2252308,40.7728997 L96.288,41.8574526 C96.4763077,41.6531165 96.696,41.4330623 96.9627692,41.19729 C97.2295385,40.9615176 97.5433846,40.7571816 97.9043077,40.5528455 C98.2652308,40.3485095 98.6889231,40.1913279 99.144,40.0655827 C99.5990769,39.9398374 100.132615,39.8769648 100.713231,39.8769648 C102.564923,39.8769648 103.961538,40.4271003 104.934462,41.5273713 C105.907385,42.6276423 106.378154,44.1208672 106.378154,45.9913279 L106.378154,54.3219512 C106.378154,54.6834688 106.08,54.9821138 105.719077,54.9821138 L103.318154,54.9821138 C102.957231,54.9821138 102.659077,54.6834688 102.659077,54.3219512 L102.659077,46.0227642 C102.659077,45.0796748 102.408,44.3409214 101.890154,43.8222222 C101.372308,43.303523 100.713231,43.0520325 99.8815385,43.0520325 C99.3793846,43.0520325 98.9086154,43.1463415 98.4692308,43.3506775 C98.0298462,43.5550136 97.6532308,43.8222222 97.3393846,44.1837398 C97.0255385,44.5452575 96.7744615,44.9539295 96.6018462,45.4254743 C96.4292308,45.897019 96.3350769,46.4157182 96.3350769,46.9501355 L96.3350769,54.3062331 C96.3350769,54.6677507 96.0369231,54.9663957 95.676,54.9663957 L93.2750769,54.9663957 C92.9141538,54.9663957 92.616,54.6677507 92.616,54.3062331 L92.616,40.7886179 C92.6316923,40.4585366 92.9141538,40.1756098 93.2593846,40.1756098" id="Shape" fill="#202945"></path>
                    <path d="M110.489538,41.5116531 C110.489538,41.7474255 110.426769,41.9517615 110.316923,42.1560976 C110.207077,42.3604336 110.050154,42.5176152 109.846154,42.6276423 C109.642154,42.7376694 109.438154,42.800542 109.202769,42.800542 C108.967385,42.800542 108.763385,42.7376694 108.559385,42.6276423 C108.355385,42.5176152 108.198462,42.3604336 108.088615,42.1560976 C107.978769,41.9517615 107.916,41.7474255 107.916,41.5116531 C107.916,41.2758808 107.978769,41.0715447 108.088615,40.8672087 C108.198462,40.6628726 108.355385,40.5056911 108.559385,40.395664 C108.763385,40.2856369 108.967385,40.2227642 109.202769,40.2227642 C109.438154,40.2227642 109.642154,40.2856369 109.846154,40.395664 C110.050154,40.5056911 110.207077,40.6628726 110.316923,40.8672087 C110.426769,41.0715447 110.489538,41.2915989 110.489538,41.5116531 L110.489538,41.5116531 Z M110.316923,41.5116531 C110.316923,41.3230352 110.269846,41.1344173 110.175692,40.9615176 C110.081538,40.7886179 109.940308,40.6471545 109.767692,40.5528455 C109.595077,40.4585366 109.406769,40.4113821 109.218462,40.4113821 C109.014462,40.4113821 108.841846,40.4585366 108.669231,40.5528455 C108.496615,40.6471545 108.355385,40.7886179 108.261231,40.9615176 C108.167077,41.1344173 108.12,41.3230352 108.12,41.5116531 C108.12,41.7159892 108.167077,41.8888889 108.261231,42.0617886 C108.355385,42.2346883 108.496615,42.3604336 108.669231,42.4704607 C108.841846,42.5647696 109.030154,42.6119241 109.218462,42.6119241 C109.406769,42.6119241 109.595077,42.5647696 109.767692,42.4704607 C109.940308,42.3761518 110.081538,42.2346883 110.175692,42.0617886 C110.254154,41.904607 110.316923,41.7159892 110.316923,41.5116531 L110.316923,41.5116531 Z M108.669231,40.7728997 L109.281231,40.7728997 C109.422462,40.7728997 109.532308,40.7886179 109.595077,40.8200542 C109.657846,40.8514905 109.704923,40.898645 109.752,40.9615176 C109.799077,41.0243902 109.814769,41.102981 109.814769,41.19729 C109.814769,41.2758808 109.799077,41.3387534 109.767692,41.3859079 C109.752,41.4330623 109.704923,41.4644986 109.626462,41.5116531 C109.689231,41.5430894 109.736308,41.5745257 109.767692,41.6216802 C109.783385,41.6688347 109.799077,41.7317073 109.799077,41.8417344 L109.799077,42.0146341 C109.799077,42.0932249 109.814769,42.1560976 109.846154,42.203252 L109.877538,42.2504065 L109.610769,42.2504065 C109.595077,42.1875339 109.579385,42.1246612 109.579385,42.0303523 L109.563692,41.8574526 C109.563692,41.7945799 109.548,41.7474255 109.532308,41.7159892 C109.516615,41.6845528 109.485231,41.6688347 109.453846,41.6531165 C109.422462,41.6373984 109.359692,41.6373984 109.265538,41.6373984 L108.904615,41.6373984 L108.904615,42.2504065 L108.669231,42.2504065 L108.669231,40.7728997 L108.669231,40.7728997 Z M108.904615,40.9929539 L108.904615,41.4330623 L109.265538,41.4330623 C109.375385,41.4330623 109.453846,41.4173442 109.485231,41.401626 C109.548,41.3701897 109.579385,41.3073171 109.579385,41.2130081 C109.579385,41.1344173 109.563692,41.0872629 109.516615,41.0558266 C109.469538,41.0243902 109.391077,41.0086721 109.281231,41.0086721 L108.904615,41.0086721 L108.904615,40.9929539 Z" id="Shape" fill="#202945"></path>
                    <path d="M81.7569231,40.1284553 L84.0793846,40.1284553 C84.4246154,40.1284553 84.6913846,40.395664 84.7070769,40.7257453 L84.7698462,41.9831978 C84.9424615,41.7788618 85.1464615,41.5430894 85.4132308,41.2915989 C85.68,41.0401084 85.9781538,40.804336 86.3390769,40.6 C86.7,40.395664 87.108,40.2070461 87.5787692,40.0655827 C88.0495385,39.9241192 88.5987692,39.8455285 89.1950769,39.8455285 C89.556,39.8455285 89.8698462,39.8612466 90.1523077,39.9084011 C90.2778462,39.9241192 90.4033846,39.9555556 90.5132308,39.9869919 C90.7956923,40.0498645 90.9683077,40.3327913 90.9055385,40.6157182 L90.372,43.0677507 C90.3092308,43.3663957 90.0110769,43.5392954 89.7286154,43.4607046 C89.6501538,43.4449864 89.556,43.4292683 89.4775385,43.4135501 C89.2107692,43.3663957 88.9126154,43.3506775 88.5516923,43.3506775 C88.0495385,43.3506775 87.5630769,43.4292683 87.108,43.602168 C86.6529231,43.7750678 86.2449231,44.0108401 85.9153846,44.3252033 C85.5858462,44.6395664 85.3190769,45.0168022 85.1150769,45.4569106 C84.9110769,45.897019 84.8169231,46.4 84.8169231,46.9344173 L84.8169231,54.2905149 C84.8169231,54.6363144 84.5344615,54.9192412 84.1892308,54.9192412 L81.7255385,54.9192412 C81.3803077,54.9192412 81.0978462,54.6363144 81.0978462,54.2905149 L81.0978462,40.7414634 C81.1292308,40.4113821 81.4116923,40.1284553 81.7569231,40.1284553" id="Shape" fill="#202945"></path>
                    <path d="M29.9095385,40.395664 C29.5956923,40.395664 29.3289231,40.6471545 29.3289231,40.9772358 L29.3289231,48.1761518 C29.3289231,50.1409214 27.9166154,51.4612466 26.2061538,51.4612466 L25.5156923,51.4612466 C23.8052308,51.4612466 22.3929231,50.1409214 22.3929231,48.1761518 L22.3929231,40.9772358 C22.3929231,40.6628726 22.1418462,40.395664 21.8123077,40.395664 L19.5369231,40.395664 C19.2230769,40.395664 18.9563077,40.6471545 18.9563077,40.9772358 L18.9563077,48.9620596 C18.9563077,52.4357724 22.1261538,54.8406504 25.4686154,54.8720867 L25.4686154,54.8720867 L25.5,54.8720867 L25.5470769,54.8720867 L25.5470769,54.8720867 L26.1590769,54.8720867 L26.1590769,54.8720867 L26.2061538,54.8720867 L26.2846154,54.8720867 L26.2846154,54.8720867 C29.6113846,54.8092141 32.7498462,52.4200542 32.7498462,48.9620596 L32.7498462,40.9772358 C32.7498462,40.6628726 32.4987692,40.395664 32.1692308,40.395664 L29.9095385,40.395664 L29.9095385,40.395664 Z" id="Shape" fill="#202945"></path>
                    <path d="M63.8363077,47.6260163 C63.8363077,46.5571816 64.0246154,45.5355014 64.4169231,44.5766938 C64.8092308,43.6178862 65.3427692,42.7848238 66.0332308,42.0617886 C66.7236923,41.3544715 67.5553846,40.7728997 68.544,40.3642276 C69.5169231,39.9398374 70.5996923,39.7355014 71.7766154,39.7355014 C72.9535385,39.7355014 74.0363077,39.9398374 75.0092308,40.3642276 C75.9821538,40.7886179 76.8138462,41.3544715 77.52,42.0617886 C78.2104615,42.7848238 78.7596923,43.6178862 79.1363077,44.5766938 C79.5286154,45.5355014 79.7169231,46.5414634 79.7169231,47.6260163 C79.7169231,48.6948509 79.5286154,49.7165312 79.1363077,50.6753388 C78.744,51.6341463 78.2104615,52.4672087 77.52,53.2059621 C76.8295385,53.9289973 75.9978462,54.5105691 75.0092308,54.9192412 C74.0363077,55.3436314 72.9535385,55.5479675 71.7766154,55.5479675 C70.5996923,55.5479675 69.5169231,55.3436314 68.544,54.9192412 C67.5710769,54.4948509 66.7393846,53.9289973 66.0332308,53.2059621 C65.3427692,52.4829268 64.7935385,51.6341463 64.4169231,50.6753388 C64.0246154,49.700813 63.8363077,48.6948509 63.8363077,47.6260163 M71.7766154,52.3257453 C72.4827692,52.3257453 73.1104615,52.1842818 73.6283077,51.901355 C74.1461538,51.6184282 74.5855385,51.2411924 74.9307692,50.7853659 C75.276,50.3295393 75.5270769,49.8108401 75.6996923,49.2764228 C75.8723077,48.7262873 75.9507692,48.1761518 75.9507692,47.6417344 C75.9507692,47.1230352 75.8723077,46.5728997 75.6996923,46.0227642 C75.5270769,45.4726287 75.276,44.9539295 74.9307692,44.5138211 C74.5855385,44.0579946 74.1461538,43.696477 73.6283077,43.4135501 C73.1104615,43.1306233 72.4827692,42.9891599 71.7766154,42.9891599 C71.0547692,42.9891599 70.4427692,43.1306233 69.9249231,43.4135501 C69.4070769,43.696477 68.9676923,44.0737127 68.6224615,44.5138211 C68.2772308,44.9696477 68.0261538,45.4726287 67.8535385,46.0227642 C67.6809231,46.5728997 67.6024615,47.1230352 67.6024615,47.6417344 C67.6024615,48.1918699 67.6809231,48.7420054 67.8535385,49.2764228 C68.0261538,49.8265583 68.2772308,50.3295393 68.6224615,50.7853659 C68.9676923,51.2411924 69.4070769,51.6184282 69.9249231,51.901355 C70.4427692,52.1842818 71.0547692,52.3257453 71.7766154,52.3257453" id="Shape" fill="#202945"></path>
                    <path d="M132.301846,50.6281843 C132.851077,51.304065 133.604308,51.7913279 134.153538,52.4829268 C134.891077,53.3945799 136.083692,56.0823848 136.083692,56.3338753 C136.083692,56.9468835 135.597231,56.9154472 135.110769,57.1826558 C134.875385,57.2612466 134.749846,57.5127371 134.530154,57.1355014 C134.420308,57.0569106 134.279077,57.0254743 134.137846,57.0883469 C133.996615,57.1512195 134.012308,57.3555556 134.028,57.5598916 C134.043692,57.6856369 133.965231,57.8113821 133.839692,57.8585366 C133.431692,57.9842818 133.023692,58.0157182 132.568615,57.8742547 C132.207692,57.7642276 131.956615,57.7485095 131.846769,57.198374 C131.846769,57.1826558 131.831077,57.1669377 131.831077,57.1512195 C131.187692,55.4222222 132.505846,56.4281843 129.963692,51.901355 C129.932308,51.8227642 129.900923,51.7441734 129.869538,51.6655827 C129.649846,50.8796748 129.210462,50.1566396 128.488615,49.7165312 C128.049231,49.4493225 127.704,49.0563686 127.5,48.5533875 C127.044923,47.4373984 126.260308,46.7457995 125.240308,46.3371274 C124.565538,46.0699187 123.890769,45.8341463 123.216,45.5512195 C121.693846,44.9067751 119.904923,43.7593496 118.586769,41.7631436 C118.524,41.6845528 118.461231,41.5902439 118.414154,41.495935 C118.304308,41.2758808 117.362769,40.1441734 117.566769,40.2227642 C119.559692,41.0558266 124.173231,41.8731707 126.809538,42.1560976 C127.201846,42.203252 127.562769,42.4390244 127.704,42.8162602 C127.719692,42.8634146 127.923692,43.2092141 127.955077,43.2563686 C128.755385,44.5138211 128.802462,44.7181572 129.132,45.1739837 C129.649846,45.897019 130.371692,46.5571816 130.497231,47.4531165 C130.701231,48.8834688 131.564308,49.7322493 132.301846,50.6281843 M152.717538,33.5425474 C152.670462,33.4796748 152.544923,33.4168022 152.560615,33.2753388 C152.592,32.7880759 152.356615,32.9452575 152.168308,33.0552846 C151.556308,33.4639566 150.740308,33.6211382 150.536308,34.6428184 C150.489231,34.8785908 150.269538,34.9571816 150.112615,35.0514905 C148.496308,36.0102981 146.738769,34.8628726 146.299385,32.5523035 C146.079692,31.3420054 145.781538,30.1788618 145.295077,29.0785908 C145.044,28.4813008 144.275077,27.695393 143.914154,27.0823848 C143.851385,26.9723577 143.82,26.8623306 143.82,26.7365854 C143.804308,26.0921409 143.537538,24.6303523 141.795692,23.6243902 C141.78,23.6086721 141.764308,23.6086721 141.764308,23.5929539 C139.645846,22.0525745 135.079385,20.4493225 132.631385,19.7105691 C131.689846,19.4590786 131.438769,20.0563686 131.423077,20.4336043 C131.423077,20.5121951 131.423077,20.5750678 131.454462,20.6536585 C131.501538,20.8265583 131.611385,21.1723577 131.611385,21.1880759 C132.192,23.404336 132.945231,26.4850949 132.505846,26.3593496 C132.050769,26.2336043 130.920923,19.8205962 128.237538,17.9658537 C128.221846,17.9501355 128.206154,17.9344173 128.190462,17.9186992 C126.448615,16.299729 122.823692,15.5452575 121.599692,15.2780488 C121.442769,15.2466125 121.301538,15.1523035 121.191692,15.0265583 C120.469846,14.0677507 119.355692,13.7691057 117.598154,13.4861789 C116.876308,13.3604336 116.248615,13.2818428 115.715077,13.2189702 C115.275692,13.1718157 114.993231,12.7317073 115.134462,12.3073171 L115.134462,12.3073171 C115.197231,12.1344173 115.197231,11.7728997 115.071692,11.7414634 C114.946154,11.6943089 114.538154,11.8672087 114.192923,11.9143631 C113.957538,11.9457995 113.690769,11.7886179 113.690769,11.7886179 C113.612308,11.7414634 113.816308,11.9143631 113.722154,11.8357724 C112.717846,10.8769648 115.228615,9.99674797 114.679385,9.9495935 C114.491077,9.93387534 114.302769,9.93387534 114.114462,9.93387534 C113.345538,9.91815718 112.639385,9.96531165 112.058769,10.0596206 C111.901846,10.0753388 111.807692,9.93387534 111.823385,9.80813008 C111.823385,9.74525745 111.854769,9.68238482 111.933231,9.65094851 C115.244308,7.85907859 116.484,5.8 116.484,5.8 C116.484,5.8 117.488308,4.16531165 115.150154,3.08075881 C114.710769,2.87642276 114.130154,2.68780488 113.424,2.53062331 C111.399692,2.10623306 109.595077,1.4303523 108.182769,0.833062331 C107.696308,0.61300813 107.241231,0.408672087 106.864615,0.220054201 C106.848923,0.220054201 106.754769,0.172899729 106.676308,0.141463415 C106.456615,0.0628726287 106.268308,0.125745257 106.158462,0.39295393 C105.970154,0.848780488 106.597846,1.08455285 106.927385,1.33604336 C108.308308,2.42059621 109.893231,3.09647696 111.321231,4.0395664 C112.231385,4.62113821 112.247077,4.88834688 111.415385,5.45420054 C110.207077,6.28726287 108.841846,6.80596206 107.476615,7.32466125 C107.398154,7.35609756 107.335385,7.37181572 107.256923,7.37181572 C106.535077,6.900271 105.813231,6.7902439 105.138462,6.91598916 C103.930154,6.96314363 102.816,7.63902439 102.204,8.77073171 C102.078462,9.00650407 101.811692,9.14796748 101.544923,9.11653117 L101.403692,9.11653117 C101.309538,9.10081301 101.215385,9.10081301 101.136923,9.10081301 C98.1710769,9.33658537 97.5904615,10.5468835 97.4806154,11.0655827 C97.4492308,11.2227642 97.3550769,11.3485095 97.2138462,11.4113821 C90.8427692,14.099187 86.3704615,12.0872629 84.864,11.2070461 C84.8483077,11.2070461 84.8483077,11.1913279 84.8326154,11.1913279 C84.6443077,11.0813008 84.4089231,11.2542005 84.4873846,11.4742547 C85.8996923,15.0737127 93.1966154,15.3566396 95.2366154,15.3723577 L95.472,15.3723577 C95.6289231,15.3723577 95.7544615,15.5295393 95.6916923,15.6710027 C95.1738462,17.1799458 94.5461538,18.1544715 94.1538462,18.704607 C93.9655385,18.9718157 93.8086154,19.2704607 93.7144615,19.5848238 L93.6673846,19.7105691 C93.4947692,20.2607046 93.4947692,20.8579946 93.6830769,21.4081301 C93.7301538,21.5495935 93.7301538,21.6910569 93.6987692,21.8325203 C93.6830769,21.9111111 93.6673846,21.9582656 93.6673846,22.0211382 C93.6673846,22.0211382 93.6516923,22.1626016 93.6830769,22.3197832 C94.0596923,24.6460705 95.3307692,25.1490515 95.3307692,25.1490515 C95.3307692,25.1490515 95.5504615,25.2747967 96.3821538,25.2433604 C98.3750769,25.1490515 101.701846,24.6775068 102.533538,24.6146341 C102.627692,24.6146341 102.706154,24.6146341 102.800308,24.6460705 L102.847385,24.6617886 C102.910154,24.6775068 102.972923,24.6932249 103.02,24.7246612 C105.891692,26.2178862 110.175692,30.8704607 111.697846,33.5582656 C111.792,33.7154472 111.870462,33.8883469 111.964615,34.0455285 C112.686462,35.4130081 113.439692,36.4504065 114.679385,37.3620596 C114.820615,37.4563686 115.212923,37.7550136 115.840615,38.1165312 C116.640923,38.5723577 117.284308,38.8238482 117.802154,39.0439024 C119.198769,39.6097561 120.344308,39.8926829 121.191692,40.1127371 C121.552615,40.2070461 121.788,40.2542005 121.944923,40.2856369 C122.588308,40.4271003 123.184615,40.5056911 123.922154,40.6 C126.699692,40.9615176 127.986462,40.8200542 128.488615,41.700271 C128.52,41.7474255 128.614154,42.0775068 128.661231,42.203252 C128.661231,42.2189702 128.676923,42.2346883 128.676923,42.2504065 C129.351692,44.2466125 129.791077,44.4823848 130.104923,45.3940379 C130.246154,45.8184282 130.481538,46.0699187 130.873846,46.1799458 C131.485846,46.3685637 132.035077,46.698645 132.286154,47.3745257 C132.866769,48.9149051 133.965231,50.1094851 135.408923,50.502439 C136.993846,50.9425474 137.715692,50.801084 138.672923,49.4807588 C139.033846,48.9934959 139.049538,48.5219512 138.767077,48.0189702 C138.202154,47.0130081 137.354769,46.5257453 136.319077,46.4 C135.832615,46.3371274 135.361846,46.0856369 135.283385,45.5826558 C135.173538,44.7338753 134.734154,44.2466125 134.232,43.7121951 C133.729846,43.1934959 133.855385,42.4704607 134.420308,42.1403794 C134.561538,42.0460705 136.256308,40.7100271 136.946769,40.3642276 C137.197846,40.2384824 138.641538,39.7197832 138.688615,38.698103 C138.484615,36.2460705 138.876923,34.501355 139.065231,34.5170732 C139.175077,34.5327913 138.986769,35.3344173 139.300615,36.8590786 C139.316308,36.9376694 139.332,37.0162602 139.363385,37.0791328 L139.363385,37.0791328 C139.661538,38.8395664 141.764308,41.6059621 142.784308,42.7848238 C142.831385,42.8476965 142.878462,42.9105691 142.909846,42.9891599 C143.113846,43.5392954 143.396308,44.0422764 143.725846,44.5138211 C143.867077,44.702439 144.008308,45.0482385 144.055385,45.2840108 C144.384923,47.2487805 145.326462,48.9934959 145.514769,50.9897019 C145.593231,51.7441734 145.765846,52.6715447 145.656,53.0173442 C145.640308,53.095935 145.608923,53.1745257 145.624615,53.2531165 C145.671692,53.7875339 145.844308,54.997832 146.048308,55.0921409 C146.268,55.202168 147.288,55.4065041 147.758769,54.8878049 C147.790154,54.8406504 147.821538,54.7934959 147.821538,54.7306233 C147.915692,53.8661247 148.260923,54.2433604 148.433538,54.4791328 C148.480615,54.5577236 148.574769,54.5734417 148.653231,54.5420054 C149.076923,54.3848238 149.280923,54.2119241 149.532,53.897561 C149.563385,53.8661247 149.579077,53.8189702 149.594769,53.7560976 C149.736,53.0173442 149.767385,52.2943089 149.422154,51.60271 C149.108308,50.9897019 148.747385,50.4395664 148.339385,49.9208672 C147.382154,48.6634146 146.832923,47.2330623 147.225231,45.4411924 C147.397846,44.6552846 147.225231,43.9479675 146.801538,43.3506775 C146.503385,42.9420054 146.472,42.5490515 146.581846,41.998916 C146.911385,40.301355 147.021231,38.5880759 146.848615,36.8590786 C146.817231,36.5918699 146.676,36.2932249 146.911385,36.0888889 C147.131077,35.8845528 147.366462,36.0731707 147.570462,36.1831978 C148.606154,36.6861789 149.610462,36.5447154 150.567692,35.9317073 C150.787385,35.7902439 151.007077,35.6487805 151.273846,35.6487805 C152.388,35.6487805 152.905846,34.9100271 152.984308,34.4384824 C152.921538,34.1712737 152.890154,33.7783198 152.717538,33.5425474" id="Shape" fill="#FF6900"></path>
                </g>
            </g>
        </g>
    </g>
</svg>